<mxfile host="app.diagrams.net" agent="Mozilla/5.0 (X11; Linux x86_64) AppleWebKit/537.36 (KHTML, like Gecko) Chrome/137.0.0.0 Safari/537.36" version="28.0.6">
  <diagram name="Page-1" id="Xa4HiU06uu2VXl8qRVdY">
    <mxGraphModel dx="4426" dy="1705" grid="1" gridSize="10" guides="1" tooltips="1" connect="1" arrows="1" fold="1" page="1" pageScale="1" pageWidth="850" pageHeight="1100" math="0" shadow="0">
      <root>
        <mxCell id="0" />
        <mxCell id="1" parent="0" />
        <mxCell id="of-Or63fq2WvLNfduHY4-37" value="&lt;font data-font-src=&quot;https://fonts.googleapis.com/css?family=Sarabun&quot; face=&quot;Sarabun&quot;&gt;โจทย์ปัญหา&lt;/font&gt;" style="swimlane;whiteSpace=wrap;html=1;" parent="1" vertex="1">
          <mxGeometry x="-2550" y="10" width="630" height="350" as="geometry" />
        </mxCell>
        <mxCell id="of-Or63fq2WvLNfduHY4-38" value="&lt;font data-font-src=&quot;https://fonts.googleapis.com/css?family=Sarabun&quot; face=&quot;Sarabun&quot; style=&quot;font-size: 14px;&quot;&gt;จงเขียน Flowchart เพื่อแสดงขั้นตอนการทำงาน ของเครื่องขายน้ำอัตโนมัติที่ชื่อว่า &quot;ตะพาบลอย&quot;&lt;br&gt;โดยจะต้องมีสินค้าดังนี้&lt;br&gt;&lt;u&gt;ประเภทน้ำ&lt;span style=&quot;white-space: pre;&quot;&gt;&#x9;&lt;/span&gt;&lt;span style=&quot;white-space: pre;&quot;&gt;&#x9;&lt;/span&gt;&lt;span style=&quot;white-space: pre;&quot;&gt;&#x9;&lt;/span&gt;&lt;span style=&quot;white-space: pre;&quot;&gt;&#x9;&lt;/span&gt;&lt;span style=&quot;white-space: pre;&quot;&gt;&#x9;&lt;/span&gt;&lt;span style=&quot;white-space: pre;&quot;&gt;&#x9;&lt;span style=&quot;white-space: pre;&quot;&gt;&#x9;&lt;/span&gt;ข&lt;/span&gt;นม&lt;/u&gt;&lt;br&gt;&lt;span style=&quot;white-space: pre;&quot;&gt;&#x9;&lt;/span&gt;- โค้ก กระป๋องละ 10 บาท&lt;span style=&quot;white-space: pre;&quot;&gt;&#x9;&lt;/span&gt;&lt;span style=&quot;white-space: pre;&quot;&gt;&#x9;&lt;/span&gt;&lt;span style=&quot;white-space: pre;&quot;&gt;&#x9;&lt;/span&gt;&lt;span style=&quot;white-space: pre;&quot;&gt;&#x9;&lt;/span&gt;- เมล็ดทานตะวัน 13 บาท&lt;br&gt;&lt;span style=&quot;white-space: pre;&quot;&gt;&#x9;&lt;/span&gt;- น้ำเขียว กระป๋องละ 12 บาท&lt;span style=&quot;white-space: pre;&quot;&gt;&#x9;&lt;/span&gt;&lt;span style=&quot;white-space: pre;&quot;&gt;&#x9;&lt;/span&gt;&lt;span style=&quot;white-space: pre;&quot;&gt;&#x9;&lt;/span&gt;- ถั่วแปบ 20 บาท&lt;br&gt;&lt;span style=&quot;white-space: pre;&quot;&gt;&#x9;&lt;/span&gt;- อเมริกาโน่ 30 บาท&lt;span style=&quot;white-space: pre;&quot;&gt;&#x9;&lt;/span&gt;&lt;span style=&quot;white-space: pre;&quot;&gt;&#x9;&lt;/span&gt;&lt;span style=&quot;white-space: pre;&quot;&gt;&#x9;&lt;/span&gt;&lt;span style=&quot;white-space: pre;&quot;&gt;&#x9;&lt;/span&gt;&lt;span style=&quot;white-space: pre;&quot;&gt;&#x9;&lt;/span&gt;- จิ้นส้มหมก 15 บาท&lt;br&gt;&lt;span style=&quot;white-space: pre;&quot;&gt;&#x9;&lt;/span&gt;- ลาเต้ หวานเจี๊ยบ 35 บาท&lt;span style=&quot;white-space: pre;&quot;&gt;&#x9;&lt;/span&gt;&lt;br&gt;&lt;br&gt;&lt;u&gt;สิ่งที่ระบบควรจะทำได้&lt;/u&gt;&lt;br&gt;&lt;span style=&quot;white-space: pre;&quot;&gt;&#x9;&lt;/span&gt;- ลูกค้าเลือกสินค้า, ระบบจะต้องรวมยอดขาย และรวมรายการสินค้าทั้งหมดที่ลูกค้าเลือก&lt;br&gt;&lt;span style=&quot;white-space: pre;&quot;&gt;&#x9;&lt;/span&gt;- สรุปยอดว่าเหลือเงินในตู้อีกเท่าไหร่ เหลือเหรียญอะไรบ้าง? ธนบัตรอะไรบ้าง? อย่างละเท่าไหร่?&lt;br&gt;&lt;br&gt;&lt;br&gt;&lt;/font&gt;" style="text;html=1;align=left;verticalAlign=middle;resizable=0;points=[];autosize=1;strokeColor=none;fillColor=none;fontSize=14;" parent="of-Or63fq2WvLNfduHY4-37" vertex="1">
          <mxGeometry x="25" y="30" width="580" height="240" as="geometry" />
        </mxCell>
        <mxCell id="of-Or63fq2WvLNfduHY4-1" value="ทบทวนสัญลักษณ์" style="swimlane;fontFamily=Sarabun;fontSource=https%3A%2F%2Ffonts.googleapis.com%2Fcss%3Ffamily%3DSarabun;" parent="of-Or63fq2WvLNfduHY4-37" vertex="1">
          <mxGeometry x="-10" y="200" width="640" height="240" as="geometry" />
        </mxCell>
        <mxCell id="of-Or63fq2WvLNfduHY4-2" value="&lt;font data-font-src=&quot;https://fonts.googleapis.com/css?family=Sarabun&quot; face=&quot;Sarabun&quot;&gt;เริ่มต้น&lt;/font&gt;" style="ellipse;whiteSpace=wrap;html=1;" parent="of-Or63fq2WvLNfduHY4-1" vertex="1">
          <mxGeometry x="20" y="40" width="130" height="30" as="geometry" />
        </mxCell>
        <mxCell id="of-Or63fq2WvLNfduHY4-3" value="" style="endArrow=classic;html=1;rounded=0;" parent="of-Or63fq2WvLNfduHY4-1" edge="1">
          <mxGeometry width="50" height="50" relative="1" as="geometry">
            <mxPoint x="84.5" y="70" as="sourcePoint" />
            <mxPoint x="84.5" y="120" as="targetPoint" />
          </mxGeometry>
        </mxCell>
        <mxCell id="of-Or63fq2WvLNfduHY4-4" value="&lt;font face=&quot;Sarabun&quot;&gt;สิ้นสุด&lt;/font&gt;" style="ellipse;whiteSpace=wrap;html=1;" parent="of-Or63fq2WvLNfduHY4-1" vertex="1">
          <mxGeometry x="150" y="90" width="130" height="30" as="geometry" />
        </mxCell>
        <mxCell id="of-Or63fq2WvLNfduHY4-5" value="" style="endArrow=classic;html=1;rounded=0;" parent="of-Or63fq2WvLNfduHY4-1" edge="1">
          <mxGeometry width="50" height="50" relative="1" as="geometry">
            <mxPoint x="214.5" y="40" as="sourcePoint" />
            <mxPoint x="214.5" y="90" as="targetPoint" />
          </mxGeometry>
        </mxCell>
        <mxCell id="of-Or63fq2WvLNfduHY4-6" value="กระบวนการ" style="rounded=0;whiteSpace=wrap;html=1;fontFamily=Sarabun;fontSource=https%3A%2F%2Ffonts.googleapis.com%2Fcss%3Ffamily%3DSarabun;" parent="of-Or63fq2WvLNfduHY4-1" vertex="1">
          <mxGeometry x="320" y="70" width="120" height="30" as="geometry" />
        </mxCell>
        <mxCell id="of-Or63fq2WvLNfduHY4-7" value="" style="endArrow=classic;html=1;rounded=0;" parent="of-Or63fq2WvLNfduHY4-1" edge="1">
          <mxGeometry width="50" height="50" relative="1" as="geometry">
            <mxPoint x="379" y="40" as="sourcePoint" />
            <mxPoint x="379.5" y="70" as="targetPoint" />
          </mxGeometry>
        </mxCell>
        <mxCell id="of-Or63fq2WvLNfduHY4-8" value="" style="endArrow=classic;html=1;rounded=0;" parent="of-Or63fq2WvLNfduHY4-1" edge="1">
          <mxGeometry width="50" height="50" relative="1" as="geometry">
            <mxPoint x="379.75" y="100" as="sourcePoint" />
            <mxPoint x="380.25" y="130" as="targetPoint" />
          </mxGeometry>
        </mxCell>
        <mxCell id="of-Or63fq2WvLNfduHY4-9" value="ประโยคเงื่อนไข" style="rhombus;whiteSpace=wrap;html=1;fontFamily=Sarabun;fontSource=https%3A%2F%2Ffonts.googleapis.com%2Fcss%3Ffamily%3DSarabun;" parent="of-Or63fq2WvLNfduHY4-1" vertex="1">
          <mxGeometry x="490" y="60" width="100" height="60" as="geometry" />
        </mxCell>
        <mxCell id="of-Or63fq2WvLNfduHY4-10" value="" style="endArrow=classic;html=1;rounded=0;" parent="of-Or63fq2WvLNfduHY4-1" edge="1">
          <mxGeometry width="50" height="50" relative="1" as="geometry">
            <mxPoint x="539.71" y="30" as="sourcePoint" />
            <mxPoint x="540.21" y="60" as="targetPoint" />
          </mxGeometry>
        </mxCell>
        <mxCell id="of-Or63fq2WvLNfduHY4-11" value="" style="endArrow=classic;html=1;rounded=0;" parent="of-Or63fq2WvLNfduHY4-1" edge="1">
          <mxGeometry width="50" height="50" relative="1" as="geometry">
            <mxPoint x="539.71" y="120" as="sourcePoint" />
            <mxPoint x="540" y="175" as="targetPoint" />
          </mxGeometry>
        </mxCell>
        <mxCell id="of-Or63fq2WvLNfduHY4-12" value="จริง" style="edgeLabel;html=1;align=center;verticalAlign=middle;resizable=0;points=[];fontFamily=Sarabun;fontSource=https%3A%2F%2Ffonts.googleapis.com%2Fcss%3Ffamily%3DSarabun;" parent="of-Or63fq2WvLNfduHY4-11" vertex="1" connectable="0">
          <mxGeometry x="-0.4142" y="-1" relative="1" as="geometry">
            <mxPoint as="offset" />
          </mxGeometry>
        </mxCell>
        <mxCell id="of-Or63fq2WvLNfduHY4-13" value="" style="endArrow=classic;html=1;rounded=0;exitX=1;exitY=0.5;exitDx=0;exitDy=0;" parent="of-Or63fq2WvLNfduHY4-1" source="of-Or63fq2WvLNfduHY4-9" edge="1">
          <mxGeometry width="50" height="50" relative="1" as="geometry">
            <mxPoint x="620" y="95" as="sourcePoint" />
            <mxPoint x="610" y="175" as="targetPoint" />
            <Array as="points">
              <mxPoint x="610" y="90" />
            </Array>
          </mxGeometry>
        </mxCell>
        <mxCell id="of-Or63fq2WvLNfduHY4-14" value="&lt;font data-font-src=&quot;https://fonts.googleapis.com/css?family=Sarabun&quot; face=&quot;Sarabun&quot;&gt;เท็จ&lt;/font&gt;" style="edgeLabel;html=1;align=center;verticalAlign=middle;resizable=0;points=[];" parent="of-Or63fq2WvLNfduHY4-13" vertex="1" connectable="0">
          <mxGeometry x="-0.0019" y="-2" relative="1" as="geometry">
            <mxPoint as="offset" />
          </mxGeometry>
        </mxCell>
        <mxCell id="of-Or63fq2WvLNfduHY4-15" value="&lt;font data-font-src=&quot;https://fonts.googleapis.com/css?family=Sarabun&quot; face=&quot;Sarabun&quot;&gt;ฟังก์ชัน/โมดูล&lt;/font&gt;" style="shape=process;whiteSpace=wrap;html=1;backgroundOutline=1;" parent="of-Or63fq2WvLNfduHY4-1" vertex="1">
          <mxGeometry x="25" y="180" width="120" height="30" as="geometry" />
        </mxCell>
        <mxCell id="of-Or63fq2WvLNfduHY4-16" value="" style="endArrow=classic;html=1;rounded=0;" parent="of-Or63fq2WvLNfduHY4-1" edge="1">
          <mxGeometry width="50" height="50" relative="1" as="geometry">
            <mxPoint x="84.70999999999998" y="150" as="sourcePoint" />
            <mxPoint x="85.20999999999998" y="180" as="targetPoint" />
          </mxGeometry>
        </mxCell>
        <mxCell id="of-Or63fq2WvLNfduHY4-17" value="" style="endArrow=classic;html=1;rounded=0;" parent="of-Or63fq2WvLNfduHY4-1" edge="1">
          <mxGeometry width="50" height="50" relative="1" as="geometry">
            <mxPoint x="84.70999999999998" y="210" as="sourcePoint" />
            <mxPoint x="85.20999999999998" y="240" as="targetPoint" />
          </mxGeometry>
        </mxCell>
        <mxCell id="of-Or63fq2WvLNfduHY4-18" value="" style="strokeWidth=2;html=1;shape=mxgraph.flowchart.start_2;whiteSpace=wrap;" parent="of-Or63fq2WvLNfduHY4-1" vertex="1">
          <mxGeometry x="205" y="185" width="20" height="20" as="geometry" />
        </mxCell>
        <mxCell id="of-Or63fq2WvLNfduHY4-19" value="" style="endArrow=classic;html=1;rounded=0;" parent="of-Or63fq2WvLNfduHY4-1" edge="1">
          <mxGeometry width="50" height="50" relative="1" as="geometry">
            <mxPoint x="214.70999999999998" y="155" as="sourcePoint" />
            <mxPoint x="215.20999999999998" y="185" as="targetPoint" />
          </mxGeometry>
        </mxCell>
        <mxCell id="of-Or63fq2WvLNfduHY4-20" value="" style="endArrow=classic;html=1;rounded=0;entryX=0;entryY=0.5;entryDx=0;entryDy=0;entryPerimeter=0;" parent="of-Or63fq2WvLNfduHY4-1" target="of-Or63fq2WvLNfduHY4-18" edge="1">
          <mxGeometry width="50" height="50" relative="1" as="geometry">
            <mxPoint x="189.99999999999997" y="155" as="sourcePoint" />
            <mxPoint x="190.49999999999997" y="185" as="targetPoint" />
            <Array as="points">
              <mxPoint x="190" y="180" />
            </Array>
          </mxGeometry>
        </mxCell>
        <mxCell id="of-Or63fq2WvLNfduHY4-21" value="" style="endArrow=classic;html=1;rounded=0;entryX=1;entryY=0.5;entryDx=0;entryDy=0;entryPerimeter=0;" parent="of-Or63fq2WvLNfduHY4-1" target="of-Or63fq2WvLNfduHY4-18" edge="1">
          <mxGeometry width="50" height="50" relative="1" as="geometry">
            <mxPoint x="239.99999999999997" y="155" as="sourcePoint" />
            <mxPoint x="240.49999999999997" y="185" as="targetPoint" />
            <Array as="points">
              <mxPoint x="240" y="180" />
            </Array>
          </mxGeometry>
        </mxCell>
        <mxCell id="of-Or63fq2WvLNfduHY4-22" value="" style="endArrow=classic;html=1;rounded=0;" parent="of-Or63fq2WvLNfduHY4-1" edge="1">
          <mxGeometry width="50" height="50" relative="1" as="geometry">
            <mxPoint x="214.70999999999998" y="205" as="sourcePoint" />
            <mxPoint x="215.20999999999998" y="235" as="targetPoint" />
          </mxGeometry>
        </mxCell>
        <mxCell id="of-Or63fq2WvLNfduHY4-23" value="&lt;font data-font-src=&quot;https://fonts.googleapis.com/css?family=Sarabun&quot; face=&quot;Sarabun&quot;&gt;ตัวเชื่อม&lt;/font&gt;" style="text;html=1;align=center;verticalAlign=middle;resizable=0;points=[];autosize=1;strokeColor=none;fillColor=none;" parent="of-Or63fq2WvLNfduHY4-1" vertex="1">
          <mxGeometry x="220" y="190" width="60" height="30" as="geometry" />
        </mxCell>
        <mxCell id="of-Or63fq2WvLNfduHY4-24" value="" style="endArrow=classic;html=1;rounded=0;" parent="of-Or63fq2WvLNfduHY4-1" edge="1">
          <mxGeometry width="50" height="50" relative="1" as="geometry">
            <mxPoint x="353.71" y="165" as="sourcePoint" />
            <mxPoint x="354.21" y="195" as="targetPoint" />
          </mxGeometry>
        </mxCell>
        <mxCell id="of-Or63fq2WvLNfduHY4-25" value="" style="verticalLabelPosition=bottom;verticalAlign=top;html=1;shape=offPageConnector;rounded=0;size=0.5;" parent="of-Or63fq2WvLNfduHY4-1" vertex="1">
          <mxGeometry x="339" y="195" width="30" height="30" as="geometry" />
        </mxCell>
        <mxCell id="of-Or63fq2WvLNfduHY4-26" value="" style="endArrow=classic;html=1;rounded=0;" parent="of-Or63fq2WvLNfduHY4-1" edge="1">
          <mxGeometry width="50" height="50" relative="1" as="geometry">
            <mxPoint x="405.71" y="195" as="sourcePoint" />
            <mxPoint x="406.21" y="225" as="targetPoint" />
          </mxGeometry>
        </mxCell>
        <mxCell id="of-Or63fq2WvLNfduHY4-27" value="" style="verticalLabelPosition=bottom;verticalAlign=top;html=1;shape=offPageConnector;rounded=0;size=0.5;" parent="of-Or63fq2WvLNfduHY4-1" vertex="1">
          <mxGeometry x="391" y="165" width="30" height="30" as="geometry" />
        </mxCell>
        <mxCell id="of-Or63fq2WvLNfduHY4-28" value="หน้าต่อไป" style="text;html=1;align=center;verticalAlign=middle;resizable=0;points=[];autosize=1;strokeColor=none;fillColor=none;fontFamily=Sarabun;fontSource=https%3A%2F%2Ffonts.googleapis.com%2Fcss%3Ffamily%3DSarabun;" parent="of-Or63fq2WvLNfduHY4-1" vertex="1">
          <mxGeometry x="345" y="220" width="70" height="30" as="geometry" />
        </mxCell>
        <mxCell id="of-Or63fq2WvLNfduHY4-29" value="ก" style="text;html=1;align=center;verticalAlign=middle;resizable=0;points=[];autosize=1;strokeColor=none;fillColor=none;fontFamily=Sarabun;fontSource=https%3A%2F%2Ffonts.googleapis.com%2Fcss%3Ffamily%3DSarabun;" parent="of-Or63fq2WvLNfduHY4-1" vertex="1">
          <mxGeometry x="339" y="190" width="30" height="30" as="geometry" />
        </mxCell>
        <mxCell id="of-Or63fq2WvLNfduHY4-30" value="ก" style="text;html=1;align=center;verticalAlign=middle;resizable=0;points=[];autosize=1;strokeColor=none;fillColor=none;fontFamily=Sarabun;fontSource=https%3A%2F%2Ffonts.googleapis.com%2Fcss%3Ffamily%3DSarabun;" parent="of-Or63fq2WvLNfduHY4-1" vertex="1">
          <mxGeometry x="391" y="160" width="30" height="30" as="geometry" />
        </mxCell>
        <mxCell id="of-Or63fq2WvLNfduHY4-31" value="แสดงผล/รับค่า" style="shape=parallelogram;perimeter=parallelogramPerimeter;whiteSpace=wrap;html=1;fixedSize=1;fontFamily=Sarabun;fontSource=https%3A%2F%2Ffonts.googleapis.com%2Fcss%3Ffamily%3DSarabun;" parent="of-Or63fq2WvLNfduHY4-1" vertex="1">
          <mxGeometry x="450" y="210" width="120" height="30" as="geometry" />
        </mxCell>
        <mxCell id="of-Or63fq2WvLNfduHY4-32" value="" style="endArrow=classic;html=1;rounded=0;" parent="of-Or63fq2WvLNfduHY4-1" edge="1">
          <mxGeometry width="50" height="50" relative="1" as="geometry">
            <mxPoint x="509.71" y="180" as="sourcePoint" />
            <mxPoint x="510.21" y="210" as="targetPoint" />
          </mxGeometry>
        </mxCell>
        <mxCell id="of-Or63fq2WvLNfduHY4-33" value="" style="endArrow=classic;html=1;rounded=0;" parent="of-Or63fq2WvLNfduHY4-1" edge="1">
          <mxGeometry width="50" height="50" relative="1" as="geometry">
            <mxPoint x="509.71" y="240" as="sourcePoint" />
            <mxPoint x="510.21" y="270" as="targetPoint" />
          </mxGeometry>
        </mxCell>
        <mxCell id="of-Or63fq2WvLNfduHY4-34" value="น" style="swimlane;fontFamily=Sarabun;fontSource=https%3A%2F%2Ffonts.googleapis.com%2Fcss%3Ffamily%3DSarabun;" parent="1" vertex="1">
          <mxGeometry x="-1055" y="-350" width="2410" height="2170" as="geometry" />
        </mxCell>
        <mxCell id="of-Or63fq2WvLNfduHY4-40" value="" style="edgeStyle=orthogonalEdgeStyle;rounded=0;orthogonalLoop=1;jettySize=auto;html=1;" parent="of-Or63fq2WvLNfduHY4-34" source="of-Or63fq2WvLNfduHY4-35" target="of-Or63fq2WvLNfduHY4-39" edge="1">
          <mxGeometry relative="1" as="geometry" />
        </mxCell>
        <mxCell id="of-Or63fq2WvLNfduHY4-35" value="&lt;font data-font-src=&quot;https://fonts.googleapis.com/css?family=Sarabun&quot; face=&quot;Sarabun&quot;&gt;เริ่มต้น&lt;/font&gt;" style="ellipse;whiteSpace=wrap;html=1;fontStyle=0" parent="of-Or63fq2WvLNfduHY4-34" vertex="1">
          <mxGeometry x="1200" y="50" width="130" height="30" as="geometry" />
        </mxCell>
        <mxCell id="of-Or63fq2WvLNfduHY4-36" value="&lt;font face=&quot;Sarabun&quot;&gt;สิ้นสุด&lt;/font&gt;" style="ellipse;whiteSpace=wrap;html=1;" parent="of-Or63fq2WvLNfduHY4-34" vertex="1">
          <mxGeometry x="1157.5" y="2110" width="130" height="30" as="geometry" />
        </mxCell>
        <mxCell id="of-Or63fq2WvLNfduHY4-43" value="" style="edgeStyle=orthogonalEdgeStyle;rounded=0;orthogonalLoop=1;jettySize=auto;html=1;" parent="of-Or63fq2WvLNfduHY4-34" source="of-Or63fq2WvLNfduHY4-39" target="of-Or63fq2WvLNfduHY4-42" edge="1">
          <mxGeometry relative="1" as="geometry" />
        </mxCell>
        <mxCell id="of-Or63fq2WvLNfduHY4-39" value="กำหนดตัวแปร&lt;div&gt;&lt;span style=&quot;font-family: Sarabun; font-size: 14px; text-align: left; text-wrap-mode: nowrap;&quot;&gt;&amp;nbsp; &amp;nbsp; &amp;nbsp;โค้ก=0,&amp;nbsp;&lt;/span&gt;&lt;span style=&quot;font-family: Sarabun; font-size: 14px; text-align: left; text-wrap-mode: nowrap;&quot;&gt;เมล็ดทานตะวัน=0,&lt;/span&gt;&lt;br style=&quot;font-family: Sarabun; font-size: 14px; text-align: left; text-wrap-mode: nowrap;&quot;&gt;&lt;span style=&quot;font-family: Sarabun; font-size: 14px; text-align: left; text-wrap-mode: nowrap;&quot;&gt;น้ำเขียว=0,&amp;nbsp;&lt;/span&gt;&lt;span style=&quot;font-family: Sarabun; font-size: 14px; text-align: left; text-wrap-mode: nowrap;&quot;&gt;ถั่วแปบ=0,&lt;/span&gt;&lt;span style=&quot;font-family: Sarabun; font-size: 14px; text-align: left; text-wrap-mode: nowrap;&quot;&gt;ลาเต้=0,&lt;/span&gt;&lt;br style=&quot;font-family: Sarabun; font-size: 14px; text-align: left; text-wrap-mode: nowrap;&quot;&gt;&lt;span style=&quot;font-family: Sarabun; font-size: 14px; text-align: left; text-wrap-mode: nowrap;&quot;&gt;อเมริกาโน่=0,&amp;nbsp;&lt;/span&gt;&lt;span style=&quot;font-family: Sarabun; font-size: 14px; text-align: left; text-wrap-mode: nowrap;&quot;&gt;จิ้นส้มหมก=&lt;/span&gt;&lt;span style=&quot;font-family: Sarabun; font-size: 14px; text-align: left; text-wrap-mode: nowrap; background-color: transparent; color: light-dark(rgb(0, 0, 0), rgb(255, 255, 255));&quot;&gt;0,&lt;/span&gt;&lt;/div&gt;" style="whiteSpace=wrap;html=1;fontStyle=0" parent="of-Or63fq2WvLNfduHY4-34" vertex="1">
          <mxGeometry x="1175" y="100" width="180" height="70" as="geometry" />
        </mxCell>
        <mxCell id="of-Or63fq2WvLNfduHY4-46" value="" style="edgeStyle=orthogonalEdgeStyle;rounded=0;orthogonalLoop=1;jettySize=auto;html=1;" parent="of-Or63fq2WvLNfduHY4-34" source="of-Or63fq2WvLNfduHY4-42" target="of-Or63fq2WvLNfduHY4-45" edge="1">
          <mxGeometry relative="1" as="geometry" />
        </mxCell>
        <mxCell id="of-Or63fq2WvLNfduHY4-42" value="กำหนดตัวแปร&lt;div&gt;&lt;span style=&quot;background-color: transparent; color: light-dark(rgb(0, 0, 0), rgb(255, 255, 255)); text-wrap-mode: nowrap; font-family: Sarabun; font-size: 14px; text-align: left;&quot;&gt;c1=0, c2&lt;/span&gt;&lt;span style=&quot;background-color: transparent; color: light-dark(rgb(0, 0, 0), rgb(255, 255, 255)); text-wrap-mode: nowrap; font-family: Sarabun; font-size: 14px; text-align: left;&quot;&gt;=0,&lt;/span&gt;&lt;span style=&quot;background-color: transparent; color: light-dark(rgb(0, 0, 0), rgb(255, 255, 255)); text-wrap-mode: nowrap; font-family: Sarabun; font-size: 14px; text-align: left;&quot;&gt;c5=0,c10&lt;/span&gt;&lt;span style=&quot;background-color: transparent; color: light-dark(rgb(0, 0, 0), rgb(255, 255, 255)); text-wrap-mode: nowrap; font-family: Sarabun; font-size: 14px; text-align: left;&quot;&gt;=0,&lt;/span&gt;&lt;/div&gt;&lt;div&gt;&lt;span style=&quot;background-color: transparent; color: light-dark(rgb(0, 0, 0), rgb(255, 255, 255)); text-wrap-mode: nowrap; font-family: Sarabun; font-size: 14px; text-align: left;&quot;&gt;b20=0,&lt;/span&gt;&lt;span style=&quot;background-color: transparent; color: light-dark(rgb(0, 0, 0), rgb(255, 255, 255)); text-wrap-mode: nowrap; font-family: Sarabun; font-size: 14px; text-align: left;&quot;&gt;b50&lt;/span&gt;&lt;span style=&quot;background-color: transparent; color: light-dark(rgb(0, 0, 0), rgb(255, 255, 255)); text-wrap-mode: nowrap; font-family: Sarabun; font-size: 14px; text-align: left;&quot;&gt;=0,&lt;/span&gt;&lt;/div&gt;&lt;div&gt;&lt;span style=&quot;background-color: transparent; color: light-dark(rgb(0, 0, 0), rgb(255, 255, 255)); text-wrap-mode: nowrap; font-family: Sarabun; font-size: 14px; text-align: left;&quot;&gt;b100=0,b500=0,b1000&lt;/span&gt;&lt;/div&gt;" style="whiteSpace=wrap;html=1;fontStyle=0" parent="of-Or63fq2WvLNfduHY4-34" vertex="1">
          <mxGeometry x="1175" y="190" width="180" height="70" as="geometry" />
        </mxCell>
        <mxCell id="of-Or63fq2WvLNfduHY4-48" value="" style="edgeStyle=orthogonalEdgeStyle;rounded=0;orthogonalLoop=1;jettySize=auto;html=1;" parent="of-Or63fq2WvLNfduHY4-34" source="of-Or63fq2WvLNfduHY4-45" target="of-Or63fq2WvLNfduHY4-47" edge="1">
          <mxGeometry relative="1" as="geometry" />
        </mxCell>
        <mxCell id="of-Or63fq2WvLNfduHY4-45" value="กำหนดตัวแปร&lt;div&gt;&lt;span style=&quot;background-color: transparent; color: light-dark(rgb(0, 0, 0), rgb(255, 255, 255)); text-wrap-mode: nowrap; font-family: Sarabun; font-size: 14px; text-align: left;&quot;&gt;sc1=0, sc2&lt;/span&gt;&lt;span style=&quot;background-color: transparent; color: light-dark(rgb(0, 0, 0), rgb(255, 255, 255)); text-wrap-mode: nowrap; font-family: Sarabun; font-size: 14px; text-align: left;&quot;&gt;=0,s&lt;/span&gt;&lt;span style=&quot;background-color: transparent; color: light-dark(rgb(0, 0, 0), rgb(255, 255, 255)); text-wrap-mode: nowrap; font-family: Sarabun; font-size: 14px; text-align: left;&quot;&gt;c5=0,&lt;/span&gt;&lt;span style=&quot;background-color: transparent; color: light-dark(rgb(0, 0, 0), rgb(255, 255, 255)); text-wrap-mode: nowrap; font-family: Sarabun; font-size: 14px; text-align: left;&quot;&gt;sc10&lt;/span&gt;&lt;span style=&quot;background-color: transparent; color: light-dark(rgb(0, 0, 0), rgb(255, 255, 255)); text-wrap-mode: nowrap; font-family: Sarabun; font-size: 14px; text-align: left;&quot;&gt;=0,&lt;/span&gt;&lt;/div&gt;&lt;div&gt;&lt;span style=&quot;background-color: transparent; color: light-dark(rgb(0, 0, 0), rgb(255, 255, 255)); text-wrap-mode: nowrap; font-family: Sarabun; font-size: 14px; text-align: left;&quot;&gt;sb20=0,s&lt;/span&gt;&lt;span style=&quot;background-color: transparent; color: light-dark(rgb(0, 0, 0), rgb(255, 255, 255)); text-wrap-mode: nowrap; font-family: Sarabun; font-size: 14px; text-align: left;&quot;&gt;b50&lt;/span&gt;&lt;span style=&quot;background-color: transparent; color: light-dark(rgb(0, 0, 0), rgb(255, 255, 255)); text-wrap-mode: nowrap; font-family: Sarabun; font-size: 14px; text-align: left;&quot;&gt;=0,&lt;/span&gt;&lt;/div&gt;&lt;div&gt;&lt;span style=&quot;background-color: transparent; color: light-dark(rgb(0, 0, 0), rgb(255, 255, 255)); text-wrap-mode: nowrap; font-family: Sarabun; font-size: 14px; text-align: left;&quot;&gt;sb100=0,sb500=0,sb1000&lt;/span&gt;&lt;/div&gt;" style="whiteSpace=wrap;html=1;fontStyle=0" parent="of-Or63fq2WvLNfduHY4-34" vertex="1">
          <mxGeometry x="1175" y="280" width="180" height="70" as="geometry" />
        </mxCell>
        <mxCell id="of-Or63fq2WvLNfduHY4-104" value="" style="edgeStyle=orthogonalEdgeStyle;rounded=0;orthogonalLoop=1;jettySize=auto;html=1;" parent="of-Or63fq2WvLNfduHY4-34" source="of-Or63fq2WvLNfduHY4-47" target="of-Or63fq2WvLNfduHY4-103" edge="1">
          <mxGeometry relative="1" as="geometry" />
        </mxCell>
        <mxCell id="of-Or63fq2WvLNfduHY4-47" value="กำหนดตัวแปร&lt;div&gt;&lt;span style=&quot;font-family: Sarabun; font-size: 14px; text-align: left; text-wrap-mode: nowrap;&quot;&gt;&amp;nbsp; &amp;nbsp; &amp;nbsp;sโค้ก=0, s&lt;/span&gt;&lt;span style=&quot;font-family: Sarabun; font-size: 14px; text-align: left; text-wrap-mode: nowrap;&quot;&gt;เมล็ดทานตะวัน=0,&lt;/span&gt;&lt;br style=&quot;font-family: Sarabun; font-size: 14px; text-align: left; text-wrap-mode: nowrap;&quot;&gt;&lt;span style=&quot;font-family: Sarabun; font-size: 14px; text-align: left; text-wrap-mode: nowrap;&quot;&gt;sน้ำเขียว=0, s&lt;/span&gt;&lt;span style=&quot;font-family: Sarabun; font-size: 14px; text-align: left; text-wrap-mode: nowrap;&quot;&gt;ถั่วแปบ=0,sลาเต้,&lt;/span&gt;&lt;br style=&quot;font-family: Sarabun; font-size: 14px; text-align: left; text-wrap-mode: nowrap;&quot;&gt;&lt;span style=&quot;font-family: Sarabun; font-size: 14px; text-align: left; text-wrap-mode: nowrap;&quot;&gt;sอเมริกาโน่=0, s&lt;/span&gt;&lt;span style=&quot;font-family: Sarabun; font-size: 14px; text-align: left; text-wrap-mode: nowrap;&quot;&gt;จิ้นส้มหมก=0,&lt;/span&gt;&lt;/div&gt;" style="whiteSpace=wrap;html=1;fontStyle=0" parent="of-Or63fq2WvLNfduHY4-34" vertex="1">
          <mxGeometry x="1175" y="370" width="180" height="70" as="geometry" />
        </mxCell>
        <mxCell id="of-Or63fq2WvLNfduHY4-53" value="" style="edgeStyle=orthogonalEdgeStyle;rounded=0;orthogonalLoop=1;jettySize=auto;html=1;" parent="of-Or63fq2WvLNfduHY4-34" target="of-Or63fq2WvLNfduHY4-52" edge="1">
          <mxGeometry relative="1" as="geometry">
            <mxPoint x="1265.0666666666666" y="570" as="sourcePoint" />
          </mxGeometry>
        </mxCell>
        <mxCell id="of-Or63fq2WvLNfduHY4-50" value="&lt;span&gt;ลูกค้าสัมผัสหน้าจอ&lt;/span&gt;" style="whiteSpace=wrap;html=1;fontStyle=0" parent="of-Or63fq2WvLNfduHY4-34" vertex="1">
          <mxGeometry x="1170" y="530" width="190" height="40" as="geometry" />
        </mxCell>
        <mxCell id="of-Or63fq2WvLNfduHY4-55" value="" style="edgeStyle=orthogonalEdgeStyle;rounded=0;orthogonalLoop=1;jettySize=auto;html=1;" parent="of-Or63fq2WvLNfduHY4-34" source="of-Or63fq2WvLNfduHY4-52" target="of-Or63fq2WvLNfduHY4-54" edge="1">
          <mxGeometry relative="1" as="geometry" />
        </mxCell>
        <mxCell id="of-Or63fq2WvLNfduHY4-52" value="&lt;div&gt;&lt;br&gt;&lt;/div&gt;&lt;div&gt;&lt;span style=&quot;background-color: transparent; color: light-dark(rgb(0, 0, 0), rgb(255, 255, 255));&quot;&gt;แสดงเมณูประเภทน้ำ&lt;/span&gt;&lt;/div&gt;&lt;div&gt;และประเภทขนม&lt;br&gt;&lt;div&gt;&lt;br&gt;&lt;/div&gt;&lt;/div&gt;" style="shape=parallelogram;perimeter=parallelogramPerimeter;whiteSpace=wrap;html=1;fixedSize=1;" parent="of-Or63fq2WvLNfduHY4-34" vertex="1">
          <mxGeometry x="1200" y="600" width="130" height="40" as="geometry" />
        </mxCell>
        <mxCell id="of-Or63fq2WvLNfduHY4-61" value="" style="edgeStyle=orthogonalEdgeStyle;rounded=0;orthogonalLoop=1;jettySize=auto;html=1;entryX=0.5;entryY=0;entryDx=0;entryDy=0;" parent="of-Or63fq2WvLNfduHY4-34" source="of-Or63fq2WvLNfduHY4-54" target="of-Or63fq2WvLNfduHY4-60" edge="1">
          <mxGeometry relative="1" as="geometry" />
        </mxCell>
        <mxCell id="of-Or63fq2WvLNfduHY4-64" value="ประเภทขนม" style="edgeLabel;html=1;align=center;verticalAlign=middle;resizable=0;points=[];" parent="of-Or63fq2WvLNfduHY4-61" vertex="1" connectable="0">
          <mxGeometry x="-0.0852" y="1" relative="1" as="geometry">
            <mxPoint as="offset" />
          </mxGeometry>
        </mxCell>
        <mxCell id="of-Or63fq2WvLNfduHY4-63" value="" style="edgeStyle=orthogonalEdgeStyle;rounded=0;orthogonalLoop=1;jettySize=auto;html=1;entryX=0.5;entryY=0;entryDx=0;entryDy=0;exitX=1;exitY=0.5;exitDx=0;exitDy=0;" parent="of-Or63fq2WvLNfduHY4-34" source="of-Or63fq2WvLNfduHY4-54" target="of-Or63fq2WvLNfduHY4-62" edge="1">
          <mxGeometry relative="1" as="geometry">
            <mxPoint x="1460" y="720" as="sourcePoint" />
            <mxPoint x="1655" y="720" as="targetPoint" />
          </mxGeometry>
        </mxCell>
        <mxCell id="of-Or63fq2WvLNfduHY4-65" value="ประเภทน้ำ" style="edgeLabel;html=1;align=center;verticalAlign=middle;resizable=0;points=[];" parent="of-Or63fq2WvLNfduHY4-63" vertex="1" connectable="0">
          <mxGeometry x="-0.2111" y="1" relative="1" as="geometry">
            <mxPoint as="offset" />
          </mxGeometry>
        </mxCell>
        <mxCell id="of-Or63fq2WvLNfduHY4-54" value="เลือกประเภทน้ำ&lt;div&gt;หรือประเภทขนม&lt;/div&gt;" style="rhombus;whiteSpace=wrap;html=1;" parent="of-Or63fq2WvLNfduHY4-34" vertex="1">
          <mxGeometry x="1215" y="670" width="100" height="90" as="geometry" />
        </mxCell>
        <mxCell id="of-Or63fq2WvLNfduHY4-67" value="" style="edgeStyle=orthogonalEdgeStyle;rounded=0;orthogonalLoop=1;jettySize=auto;html=1;" parent="of-Or63fq2WvLNfduHY4-34" source="of-Or63fq2WvLNfduHY4-60" target="of-Or63fq2WvLNfduHY4-66" edge="1">
          <mxGeometry relative="1" as="geometry" />
        </mxCell>
        <mxCell id="of-Or63fq2WvLNfduHY4-60" value="&lt;font&gt;แสดง&lt;/font&gt;&lt;div&gt;&lt;font&gt;&lt;span style=&quot;font-family: Sarabun; text-align: left; text-wrap-mode: nowrap;&quot;&gt;- เมล็ดทานตะวัน 13 บาท&amp;nbsp;&lt;/span&gt;&lt;br style=&quot;font-family: Sarabun; text-align: left; text-wrap-mode: nowrap;&quot;&gt;&lt;span style=&quot;font-family: Sarabun; text-align: left; text-wrap-mode: nowrap;&quot;&gt;- ถั่วแปบ 20 บาท&lt;/span&gt;&lt;br style=&quot;font-family: Sarabun; text-align: left; text-wrap-mode: nowrap;&quot;&gt;&lt;span style=&quot;font-family: Sarabun; text-align: left; text-wrap-mode: nowrap;&quot;&gt;- จิ้นส้มหมก 15 บาท&lt;/span&gt;&lt;/font&gt;&lt;/div&gt;" style="shape=parallelogram;perimeter=parallelogramPerimeter;whiteSpace=wrap;html=1;fixedSize=1;fontSize=10;" parent="of-Or63fq2WvLNfduHY4-34" vertex="1">
          <mxGeometry x="962" y="749.9999999999999" width="170" height="57.19" as="geometry" />
        </mxCell>
        <mxCell id="of-Or63fq2WvLNfduHY4-110" value="" style="edgeStyle=orthogonalEdgeStyle;rounded=0;orthogonalLoop=1;jettySize=auto;html=1;" parent="of-Or63fq2WvLNfduHY4-34" source="of-Or63fq2WvLNfduHY4-62" target="of-Or63fq2WvLNfduHY4-68" edge="1">
          <mxGeometry relative="1" as="geometry" />
        </mxCell>
        <mxCell id="of-Or63fq2WvLNfduHY4-62" value="&lt;font&gt;แสดง&lt;/font&gt;&lt;div&gt;&lt;span style=&quot;font-family: Sarabun; text-align: left; text-wrap-mode: nowrap;&quot;&gt;&amp;nbsp; &amp;nbsp; &amp;nbsp; &amp;nbsp; &amp;nbsp; &amp;nbsp; &amp;nbsp; &amp;nbsp; - โค้ก กระป๋องละ 10 บาท&lt;/span&gt;&lt;span style=&quot;font-family: Sarabun; text-align: left; white-space: pre;&quot;&gt;&#x9;&lt;/span&gt;&lt;span style=&quot;font-family: Sarabun; text-align: left; white-space: pre;&quot;&gt;&#x9;&lt;/span&gt;&lt;span style=&quot;font-family: Sarabun; text-align: left; white-space: pre;&quot;&gt;&#x9;&lt;/span&gt;&lt;span style=&quot;font-family: Sarabun; text-align: left; white-space: pre;&quot;&gt;&#x9;&lt;/span&gt;&lt;br style=&quot;font-family: Sarabun; text-align: left; text-wrap-mode: nowrap;&quot;&gt;&lt;span style=&quot;font-family: Sarabun; text-align: left; text-wrap-mode: nowrap;&quot;&gt;&amp;nbsp; &lt;span style=&quot;white-space: pre;&quot;&gt;&#x9;&lt;/span&gt;&lt;span style=&quot;white-space: pre;&quot;&gt;&#x9;&lt;/span&gt;- น้ำเขียว กระป๋องละ 12 บาท&lt;/span&gt;&lt;span style=&quot;font-family: Sarabun; text-align: left; white-space: pre;&quot;&gt;&#x9;&lt;/span&gt;&lt;span style=&quot;font-family: Sarabun; text-align: left; white-space: pre;&quot;&gt;&#x9;&lt;/span&gt;&lt;span style=&quot;font-family: Sarabun; text-align: left; white-space: pre;&quot;&gt;&#x9;&lt;/span&gt;&lt;br style=&quot;font-family: Sarabun; text-align: left; text-wrap-mode: nowrap;&quot;&gt;&lt;span style=&quot;font-family: Sarabun; text-align: left; text-wrap-mode: nowrap;&quot;&gt;&lt;span style=&quot;white-space: pre;&quot;&gt;&#x9;&lt;/span&gt;&lt;span style=&quot;white-space: pre;&quot;&gt;&#x9;&lt;/span&gt;- อเมริกาโน่ 30 บาท&lt;/span&gt;&lt;span style=&quot;font-family: Sarabun; text-align: left; white-space: pre;&quot;&gt;&#x9;&lt;/span&gt;&lt;span style=&quot;font-family: Sarabun; text-align: left; white-space: pre;&quot;&gt;&#x9;&lt;/span&gt;&lt;span style=&quot;font-family: Sarabun; text-align: left; white-space: pre;&quot;&gt;&#x9;&lt;/span&gt;&lt;span style=&quot;font-family: Sarabun; text-align: left; white-space: pre;&quot;&gt;&#x9;&lt;/span&gt;&lt;span style=&quot;font-family: Sarabun; text-align: left; white-space: pre;&quot;&gt;&#x9;&lt;/span&gt;&lt;/div&gt;&lt;div style=&quot;text-align: center;&quot;&gt;&lt;span style=&quot;background-color: transparent; color: light-dark(rgb(0, 0, 0), rgb(255, 255, 255)); text-align: left;&quot;&gt;&amp;nbsp; &amp;nbsp;&lt;/span&gt;&lt;span style=&quot;background-color: transparent; color: light-dark(rgb(0, 0, 0), rgb(255, 255, 255)); text-wrap-mode: nowrap; font-family: Sarabun; text-align: left;&quot;&gt;- ลาเต้ หวานเจี๊ยบ 35 บาท&lt;/span&gt;&lt;span style=&quot;background-color: transparent; color: light-dark(rgb(0, 0, 0), rgb(255, 255, 255)); font-family: Sarabun; text-align: left; white-space: pre;&quot;&gt;&#x9;&lt;/span&gt;&lt;/div&gt;" style="shape=parallelogram;perimeter=parallelogramPerimeter;whiteSpace=wrap;html=1;fixedSize=1;fontSize=10;" parent="of-Or63fq2WvLNfduHY4-34" vertex="1">
          <mxGeometry x="1535" y="748.6" width="180" height="63.59" as="geometry" />
        </mxCell>
        <mxCell id="of-Or63fq2WvLNfduHY4-115" value="" style="edgeStyle=orthogonalEdgeStyle;rounded=0;orthogonalLoop=1;jettySize=auto;html=1;entryX=0.5;entryY=0;entryDx=0;entryDy=0;" parent="of-Or63fq2WvLNfduHY4-34" source="of-Or63fq2WvLNfduHY4-66" target="of-Or63fq2WvLNfduHY4-114" edge="1">
          <mxGeometry relative="1" as="geometry" />
        </mxCell>
        <mxCell id="of-Or63fq2WvLNfduHY4-116" value="ใช่" style="edgeLabel;html=1;align=center;verticalAlign=middle;resizable=0;points=[];" parent="of-Or63fq2WvLNfduHY4-115" vertex="1" connectable="0">
          <mxGeometry x="-0.2091" y="1" relative="1" as="geometry">
            <mxPoint as="offset" />
          </mxGeometry>
        </mxCell>
        <mxCell id="of-Or63fq2WvLNfduHY4-118" value="" style="edgeStyle=orthogonalEdgeStyle;rounded=0;orthogonalLoop=1;jettySize=auto;html=1;" parent="of-Or63fq2WvLNfduHY4-34" source="of-Or63fq2WvLNfduHY4-66" target="of-Or63fq2WvLNfduHY4-117" edge="1">
          <mxGeometry relative="1" as="geometry" />
        </mxCell>
        <mxCell id="of-Or63fq2WvLNfduHY4-119" value="ไม่" style="edgeLabel;html=1;align=center;verticalAlign=middle;resizable=0;points=[];" parent="of-Or63fq2WvLNfduHY4-118" vertex="1" connectable="0">
          <mxGeometry x="-0.3871" y="2" relative="1" as="geometry">
            <mxPoint as="offset" />
          </mxGeometry>
        </mxCell>
        <mxCell id="of-Or63fq2WvLNfduHY4-66" value="เลือกเมล็ดทานตะวัน&lt;div&gt;หรือไม่&lt;/div&gt;" style="rhombus;whiteSpace=wrap;html=1;fontSize=10;" parent="of-Or63fq2WvLNfduHY4-34" vertex="1">
          <mxGeometry x="1007" y="860.0049999999999" width="80" height="80" as="geometry" />
        </mxCell>
        <mxCell id="of-Or63fq2WvLNfduHY4-108" value="" style="edgeStyle=orthogonalEdgeStyle;rounded=0;orthogonalLoop=1;jettySize=auto;html=1;" parent="of-Or63fq2WvLNfduHY4-34" source="of-Or63fq2WvLNfduHY4-68" edge="1">
          <mxGeometry relative="1" as="geometry">
            <mxPoint x="1625" y="965" as="targetPoint" />
          </mxGeometry>
        </mxCell>
        <mxCell id="of-Or63fq2WvLNfduHY4-68" value="เลือกสินค้า" style="rhombus;whiteSpace=wrap;html=1;fontSize=10;" parent="of-Or63fq2WvLNfduHY4-34" vertex="1">
          <mxGeometry x="1585" y="845.005" width="80" height="80" as="geometry" />
        </mxCell>
        <mxCell id="of-Or63fq2WvLNfduHY4-84" value="" style="edgeStyle=orthogonalEdgeStyle;rounded=0;orthogonalLoop=1;jettySize=auto;html=1;endArrow=none;endFill=0;" parent="of-Or63fq2WvLNfduHY4-34" edge="1">
          <mxGeometry relative="1" as="geometry">
            <mxPoint x="1497.5" y="965" as="sourcePoint" />
            <mxPoint x="1750" y="965" as="targetPoint" />
          </mxGeometry>
        </mxCell>
        <mxCell id="of-Or63fq2WvLNfduHY4-85" value="" style="edgeStyle=orthogonalEdgeStyle;rounded=0;orthogonalLoop=1;jettySize=auto;html=1;" parent="of-Or63fq2WvLNfduHY4-34" edge="1">
          <mxGeometry relative="1" as="geometry">
            <mxPoint x="1499.05" y="965" as="sourcePoint" />
            <mxPoint x="1499.05" y="1015.0049999999999" as="targetPoint" />
          </mxGeometry>
        </mxCell>
        <mxCell id="of-Or63fq2WvLNfduHY4-97" value="โค้กกระป๋อง" style="edgeLabel;html=1;align=center;verticalAlign=middle;resizable=0;points=[];" parent="of-Or63fq2WvLNfduHY4-85" vertex="1" connectable="0">
          <mxGeometry x="-0.141" y="-3" relative="1" as="geometry">
            <mxPoint as="offset" />
          </mxGeometry>
        </mxCell>
        <mxCell id="of-Or63fq2WvLNfduHY4-86" value="" style="edgeStyle=orthogonalEdgeStyle;rounded=0;orthogonalLoop=1;jettySize=auto;html=1;" parent="of-Or63fq2WvLNfduHY4-34" edge="1">
          <mxGeometry relative="1" as="geometry">
            <mxPoint x="1584.52" y="965" as="sourcePoint" />
            <mxPoint x="1584.52" y="1015.0049999999999" as="targetPoint" />
          </mxGeometry>
        </mxCell>
        <mxCell id="of-Or63fq2WvLNfduHY4-98" value="น้ำเขียวกระป๋อง" style="edgeLabel;html=1;align=center;verticalAlign=middle;resizable=0;points=[];" parent="of-Or63fq2WvLNfduHY4-86" vertex="1" connectable="0">
          <mxGeometry x="-0.1757" y="2" relative="1" as="geometry">
            <mxPoint as="offset" />
          </mxGeometry>
        </mxCell>
        <mxCell id="of-Or63fq2WvLNfduHY4-87" value="" style="edgeStyle=orthogonalEdgeStyle;rounded=0;orthogonalLoop=1;jettySize=auto;html=1;" parent="of-Or63fq2WvLNfduHY4-34" edge="1">
          <mxGeometry relative="1" as="geometry">
            <mxPoint x="1672" y="965" as="sourcePoint" />
            <mxPoint x="1672" y="1015.0049999999999" as="targetPoint" />
          </mxGeometry>
        </mxCell>
        <mxCell id="of-Or63fq2WvLNfduHY4-99" value="อเมริกาโน่" style="edgeLabel;html=1;align=center;verticalAlign=middle;resizable=0;points=[];" parent="of-Or63fq2WvLNfduHY4-87" vertex="1" connectable="0">
          <mxGeometry x="0.0043" y="-4" relative="1" as="geometry">
            <mxPoint as="offset" />
          </mxGeometry>
        </mxCell>
        <mxCell id="of-Or63fq2WvLNfduHY4-88" value="&lt;font style=&quot;font-size: 9px;&quot;&gt;โค้ก=โค้ก+1&lt;/font&gt;" style="rounded=0;whiteSpace=wrap;html=1;" parent="of-Or63fq2WvLNfduHY4-34" vertex="1">
          <mxGeometry x="1465" y="1015" width="70" height="30" as="geometry" />
        </mxCell>
        <mxCell id="of-Or63fq2WvLNfduHY4-89" value="&lt;font style=&quot;font-size: 9px;&quot;&gt;น้ำเขียว=&lt;/font&gt;&lt;div&gt;&lt;font style=&quot;font-size: 9px;&quot;&gt;น้ำเขียว+1&lt;/font&gt;&lt;/div&gt;" style="rounded=0;whiteSpace=wrap;html=1;" parent="of-Or63fq2WvLNfduHY4-34" vertex="1">
          <mxGeometry x="1550" y="1015" width="70" height="30" as="geometry" />
        </mxCell>
        <mxCell id="of-Or63fq2WvLNfduHY4-90" value="&lt;font style=&quot;font-size: 9px;&quot;&gt;อเมริกาโน=อเมริกาโน+1&lt;/font&gt;" style="rounded=0;whiteSpace=wrap;html=1;" parent="of-Or63fq2WvLNfduHY4-34" vertex="1">
          <mxGeometry x="1635" y="1015" width="70" height="30" as="geometry" />
        </mxCell>
        <mxCell id="of-Or63fq2WvLNfduHY4-91" value="" style="edgeStyle=orthogonalEdgeStyle;rounded=0;orthogonalLoop=1;jettySize=auto;html=1;" parent="of-Or63fq2WvLNfduHY4-34" edge="1">
          <mxGeometry relative="1" as="geometry">
            <mxPoint x="1750" y="964.99" as="sourcePoint" />
            <mxPoint x="1750" y="1014.9949999999999" as="targetPoint" />
          </mxGeometry>
        </mxCell>
        <mxCell id="of-Or63fq2WvLNfduHY4-100" value="ลาเต้ หวานเจี๊ยบ" style="edgeLabel;html=1;align=center;verticalAlign=middle;resizable=0;points=[];" parent="of-Or63fq2WvLNfduHY4-91" vertex="1" connectable="0">
          <mxGeometry x="-0.0506" y="-3" relative="1" as="geometry">
            <mxPoint as="offset" />
          </mxGeometry>
        </mxCell>
        <mxCell id="of-Or63fq2WvLNfduHY4-92" value="&lt;font style=&quot;font-size: 9px;&quot;&gt;ลาเต้=ลาเต้+1&lt;/font&gt;" style="rounded=0;whiteSpace=wrap;html=1;" parent="of-Or63fq2WvLNfduHY4-34" vertex="1">
          <mxGeometry x="1720" y="1015" width="70" height="30" as="geometry" />
        </mxCell>
        <mxCell id="of-Or63fq2WvLNfduHY4-105" value="" style="edgeStyle=orthogonalEdgeStyle;rounded=0;orthogonalLoop=1;jettySize=auto;html=1;" parent="of-Or63fq2WvLNfduHY4-34" source="of-Or63fq2WvLNfduHY4-103" edge="1">
          <mxGeometry relative="1" as="geometry">
            <mxPoint x="1265" y="530" as="targetPoint" />
          </mxGeometry>
        </mxCell>
        <mxCell id="of-Or63fq2WvLNfduHY4-103" value="&lt;div&gt;&lt;br&gt;&lt;/div&gt;กำหนดตัวแปร&lt;div&gt;a=50,b=50,c=50,d=50,e=50,f=50,g=50&lt;/div&gt;&lt;div&gt;&lt;br&gt;&lt;/div&gt;" style="rounded=0;whiteSpace=wrap;html=1;" parent="of-Or63fq2WvLNfduHY4-34" vertex="1">
          <mxGeometry x="1157.5" y="470" width="215" height="40" as="geometry" />
        </mxCell>
        <mxCell id="of-Or63fq2WvLNfduHY4-121" value="" style="edgeStyle=orthogonalEdgeStyle;rounded=0;orthogonalLoop=1;jettySize=auto;html=1;" parent="of-Or63fq2WvLNfduHY4-34" source="of-Or63fq2WvLNfduHY4-114" target="of-Or63fq2WvLNfduHY4-120" edge="1">
          <mxGeometry relative="1" as="geometry" />
        </mxCell>
        <mxCell id="of-Or63fq2WvLNfduHY4-125" value="ไม่" style="edgeLabel;html=1;align=center;verticalAlign=middle;resizable=0;points=[];" parent="of-Or63fq2WvLNfduHY4-121" vertex="1" connectable="0">
          <mxGeometry x="0.1199" y="-2" relative="1" as="geometry">
            <mxPoint as="offset" />
          </mxGeometry>
        </mxCell>
        <mxCell id="of-Or63fq2WvLNfduHY4-191" value="" style="edgeStyle=orthogonalEdgeStyle;rounded=0;orthogonalLoop=1;jettySize=auto;html=1;entryX=0.5;entryY=0;entryDx=0;entryDy=0;" parent="of-Or63fq2WvLNfduHY4-34" source="of-Or63fq2WvLNfduHY4-114" target="of-Or63fq2WvLNfduHY4-193" edge="1">
          <mxGeometry relative="1" as="geometry">
            <mxPoint x="730" y="1140" as="targetPoint" />
          </mxGeometry>
        </mxCell>
        <mxCell id="of-Or63fq2WvLNfduHY4-192" value="ใช่" style="edgeLabel;html=1;align=center;verticalAlign=middle;resizable=0;points=[];" parent="of-Or63fq2WvLNfduHY4-191" vertex="1" connectable="0">
          <mxGeometry x="-0.1304" y="2" relative="1" as="geometry">
            <mxPoint x="66" as="offset" />
          </mxGeometry>
        </mxCell>
        <mxCell id="of-Or63fq2WvLNfduHY4-114" value="a&amp;lt;=0 หรือไม่" style="rhombus;whiteSpace=wrap;html=1;fontSize=10;" parent="of-Or63fq2WvLNfduHY4-34" vertex="1">
          <mxGeometry x="882" y="920.0049999999999" width="80" height="80" as="geometry" />
        </mxCell>
        <mxCell id="of-Or63fq2WvLNfduHY4-129" value="" style="edgeStyle=orthogonalEdgeStyle;rounded=0;orthogonalLoop=1;jettySize=auto;html=1;entryX=0.5;entryY=0;entryDx=0;entryDy=0;" parent="of-Or63fq2WvLNfduHY4-34" edge="1">
          <mxGeometry relative="1" as="geometry">
            <mxPoint x="1087.0023684210526" y="1045.0026315789476" as="sourcePoint" />
            <mxPoint x="1180.05" y="1164.95" as="targetPoint" />
          </mxGeometry>
        </mxCell>
        <mxCell id="of-Or63fq2WvLNfduHY4-182" value="จิ้นส้มหมก" style="edgeLabel;html=1;align=center;verticalAlign=middle;resizable=0;points=[];" parent="of-Or63fq2WvLNfduHY4-129" vertex="1" connectable="0">
          <mxGeometry x="-0.1935" y="-2" relative="1" as="geometry">
            <mxPoint x="-33" y="-2" as="offset" />
          </mxGeometry>
        </mxCell>
        <mxCell id="of-Or63fq2WvLNfduHY4-132" value="" style="edgeStyle=orthogonalEdgeStyle;rounded=0;orthogonalLoop=1;jettySize=auto;html=1;" parent="of-Or63fq2WvLNfduHY4-34" source="of-Or63fq2WvLNfduHY4-117" target="of-Or63fq2WvLNfduHY4-131" edge="1">
          <mxGeometry relative="1" as="geometry" />
        </mxCell>
        <mxCell id="of-Or63fq2WvLNfduHY4-159" value="ใช่" style="edgeLabel;html=1;align=center;verticalAlign=middle;resizable=0;points=[];" parent="of-Or63fq2WvLNfduHY4-132" vertex="1" connectable="0">
          <mxGeometry x="0.1712" y="-1" relative="1" as="geometry">
            <mxPoint as="offset" />
          </mxGeometry>
        </mxCell>
        <mxCell id="of-Or63fq2WvLNfduHY4-194" value="ถั่วแปบ" style="edgeLabel;html=1;align=center;verticalAlign=middle;resizable=0;points=[];" parent="of-Or63fq2WvLNfduHY4-132" vertex="1" connectable="0">
          <mxGeometry x="0.2929" y="3" relative="1" as="geometry">
            <mxPoint as="offset" />
          </mxGeometry>
        </mxCell>
        <mxCell id="of-Or63fq2WvLNfduHY4-117" value="เลือกถั่วแปบ&lt;div&gt;หรือจิ้นส้มหมก&lt;/div&gt;" style="rhombus;whiteSpace=wrap;html=1;fontSize=10;" parent="of-Or63fq2WvLNfduHY4-34" vertex="1">
          <mxGeometry x="1007" y="1000.0049999999999" width="80" height="80" as="geometry" />
        </mxCell>
        <mxCell id="of-Or63fq2WvLNfduHY4-127" value="" style="edgeStyle=orthogonalEdgeStyle;rounded=0;orthogonalLoop=1;jettySize=auto;html=1;" parent="of-Or63fq2WvLNfduHY4-34" source="of-Or63fq2WvLNfduHY4-120" target="of-Or63fq2WvLNfduHY4-126" edge="1">
          <mxGeometry relative="1" as="geometry" />
        </mxCell>
        <mxCell id="of-Or63fq2WvLNfduHY4-120" value="เมล็ดทานตะวัน=เมล็ดทานตะวัน+1" style="whiteSpace=wrap;html=1;fontSize=10;" parent="of-Or63fq2WvLNfduHY4-34" vertex="1">
          <mxGeometry x="862" y="1030" width="120" height="30" as="geometry" />
        </mxCell>
        <mxCell id="of-Or63fq2WvLNfduHY4-198" value="" style="edgeStyle=orthogonalEdgeStyle;rounded=0;orthogonalLoop=1;jettySize=auto;html=1;" parent="of-Or63fq2WvLNfduHY4-34" source="of-Or63fq2WvLNfduHY4-122" edge="1">
          <mxGeometry relative="1" as="geometry">
            <mxPoint x="599" y="660" as="targetPoint" />
          </mxGeometry>
        </mxCell>
        <mxCell id="of-Or63fq2WvLNfduHY4-122" value="แสดง&lt;div&gt;สินค้าหมด&lt;/div&gt;" style="shape=parallelogram;perimeter=parallelogramPerimeter;whiteSpace=wrap;html=1;fixedSize=1;fontSize=10;" parent="of-Or63fq2WvLNfduHY4-34" vertex="1">
          <mxGeometry x="550" y="1135.01" width="98" height="30" as="geometry" />
        </mxCell>
        <mxCell id="of-Or63fq2WvLNfduHY4-174" value="" style="edgeStyle=orthogonalEdgeStyle;rounded=0;orthogonalLoop=1;jettySize=auto;html=1;" parent="of-Or63fq2WvLNfduHY4-34" source="of-Or63fq2WvLNfduHY4-126" edge="1">
          <mxGeometry relative="1" as="geometry">
            <mxPoint x="922.0000000000005" y="1390" as="targetPoint" />
          </mxGeometry>
        </mxCell>
        <mxCell id="of-Or63fq2WvLNfduHY4-126" value="a=a-1" style="whiteSpace=wrap;html=1;fontSize=10;" parent="of-Or63fq2WvLNfduHY4-34" vertex="1">
          <mxGeometry x="862" y="1080.01" width="120" height="30" as="geometry" />
        </mxCell>
        <mxCell id="of-Or63fq2WvLNfduHY4-137" value="" style="edgeStyle=orthogonalEdgeStyle;rounded=0;orthogonalLoop=1;jettySize=auto;html=1;entryX=0.5;entryY=0;entryDx=0;entryDy=0;" parent="of-Or63fq2WvLNfduHY4-34" source="of-Or63fq2WvLNfduHY4-131" target="of-Or63fq2WvLNfduHY4-135" edge="1">
          <mxGeometry relative="1" as="geometry" />
        </mxCell>
        <mxCell id="of-Or63fq2WvLNfduHY4-187" value="" style="edgeStyle=orthogonalEdgeStyle;rounded=0;orthogonalLoop=1;jettySize=auto;html=1;entryX=1;entryY=0.5;entryDx=0;entryDy=0;" parent="of-Or63fq2WvLNfduHY4-34" source="of-Or63fq2WvLNfduHY4-131" target="of-Or63fq2WvLNfduHY4-193" edge="1">
          <mxGeometry relative="1" as="geometry">
            <mxPoint x="750" y="1150" as="targetPoint" />
          </mxGeometry>
        </mxCell>
        <mxCell id="of-Or63fq2WvLNfduHY4-188" value="ใช่" style="edgeLabel;html=1;align=center;verticalAlign=middle;resizable=0;points=[];" parent="of-Or63fq2WvLNfduHY4-187" vertex="1" connectable="0">
          <mxGeometry x="-0.6061" y="1" relative="1" as="geometry">
            <mxPoint as="offset" />
          </mxGeometry>
        </mxCell>
        <mxCell id="of-Or63fq2WvLNfduHY4-131" value="b&amp;lt;=0หรือไม่" style="rhombus;whiteSpace=wrap;html=1;fontSize=10;" parent="of-Or63fq2WvLNfduHY4-34" vertex="1">
          <mxGeometry x="1007" y="1110.0149999999999" width="80" height="80" as="geometry" />
        </mxCell>
        <mxCell id="of-Or63fq2WvLNfduHY4-138" value="" style="edgeStyle=orthogonalEdgeStyle;rounded=0;orthogonalLoop=1;jettySize=auto;html=1;" parent="of-Or63fq2WvLNfduHY4-34" source="of-Or63fq2WvLNfduHY4-135" target="of-Or63fq2WvLNfduHY4-136" edge="1">
          <mxGeometry relative="1" as="geometry" />
        </mxCell>
        <mxCell id="of-Or63fq2WvLNfduHY4-135" value="ถั่วแปบ=ถั่วแปบ+1" style="whiteSpace=wrap;html=1;fontSize=10;" parent="of-Or63fq2WvLNfduHY4-34" vertex="1">
          <mxGeometry x="987" y="1210" width="120" height="30" as="geometry" />
        </mxCell>
        <mxCell id="of-Or63fq2WvLNfduHY4-177" value="" style="edgeStyle=orthogonalEdgeStyle;rounded=0;orthogonalLoop=1;jettySize=auto;html=1;" parent="of-Or63fq2WvLNfduHY4-34" edge="1">
          <mxGeometry relative="1" as="geometry">
            <mxPoint x="1042.04347826087" y="1290" as="sourcePoint" />
            <mxPoint x="1045" y="1380" as="targetPoint" />
            <Array as="points">
              <mxPoint x="1042" y="1291" />
              <mxPoint x="1045" y="1291" />
            </Array>
          </mxGeometry>
        </mxCell>
        <mxCell id="of-Or63fq2WvLNfduHY4-136" value="b=b-1" style="whiteSpace=wrap;html=1;fontSize=10;" parent="of-Or63fq2WvLNfduHY4-34" vertex="1">
          <mxGeometry x="987" y="1260" width="120" height="30" as="geometry" />
        </mxCell>
        <mxCell id="of-Or63fq2WvLNfduHY4-156" value="" style="edgeStyle=orthogonalEdgeStyle;rounded=0;orthogonalLoop=1;jettySize=auto;html=1;" parent="of-Or63fq2WvLNfduHY4-34" source="of-Or63fq2WvLNfduHY4-153" target="of-Or63fq2WvLNfduHY4-155" edge="1">
          <mxGeometry relative="1" as="geometry" />
        </mxCell>
        <mxCell id="of-Or63fq2WvLNfduHY4-153" value="`จิ้นส้มหมก=จิ้นส้มหมก+1" style="whiteSpace=wrap;html=1;fontSize=10;" parent="of-Or63fq2WvLNfduHY4-34" vertex="1">
          <mxGeometry x="1120" y="1260" width="120" height="30" as="geometry" />
        </mxCell>
        <mxCell id="of-Or63fq2WvLNfduHY4-179" value="" style="edgeStyle=orthogonalEdgeStyle;rounded=0;orthogonalLoop=1;jettySize=auto;html=1;" parent="of-Or63fq2WvLNfduHY4-34" source="of-Or63fq2WvLNfduHY4-155" edge="1">
          <mxGeometry relative="1" as="geometry">
            <mxPoint x="1180" y="1390" as="targetPoint" />
          </mxGeometry>
        </mxCell>
        <mxCell id="of-Or63fq2WvLNfduHY4-155" value="c=c-1" style="whiteSpace=wrap;html=1;fontSize=10;" parent="of-Or63fq2WvLNfduHY4-34" vertex="1">
          <mxGeometry x="1120" y="1310" width="120" height="30" as="geometry" />
        </mxCell>
        <mxCell id="of-Or63fq2WvLNfduHY4-171" value="" style="edgeStyle=orthogonalEdgeStyle;rounded=0;orthogonalLoop=1;jettySize=auto;html=1;entryX=0.5;entryY=0;entryDx=0;entryDy=0;" parent="of-Or63fq2WvLNfduHY4-34" source="of-Or63fq2WvLNfduHY4-167" target="of-Or63fq2WvLNfduHY4-153" edge="1">
          <mxGeometry relative="1" as="geometry" />
        </mxCell>
        <mxCell id="of-Or63fq2WvLNfduHY4-167" value="b&amp;lt;=0หรือไม่" style="rhombus;whiteSpace=wrap;html=1;fontSize=10;" parent="of-Or63fq2WvLNfduHY4-34" vertex="1">
          <mxGeometry x="1140" y="1160" width="80" height="80" as="geometry" />
        </mxCell>
        <mxCell id="of-Or63fq2WvLNfduHY4-176" value="" style="edgeStyle=orthogonalEdgeStyle;rounded=0;orthogonalLoop=1;jettySize=auto;html=1;" parent="of-Or63fq2WvLNfduHY4-34" edge="1">
          <mxGeometry relative="1" as="geometry">
            <mxPoint x="922.0000000000005" y="1390" as="sourcePoint" />
            <mxPoint x="1030" y="1390" as="targetPoint" />
          </mxGeometry>
        </mxCell>
        <mxCell id="of-Or63fq2WvLNfduHY4-181" value="" style="edgeStyle=orthogonalEdgeStyle;rounded=0;orthogonalLoop=1;jettySize=auto;html=1;" parent="of-Or63fq2WvLNfduHY4-34" edge="1">
          <mxGeometry relative="1" as="geometry">
            <mxPoint x="1180" y="1390" as="sourcePoint" />
            <mxPoint x="1060" y="1390" as="targetPoint" />
          </mxGeometry>
        </mxCell>
        <mxCell id="of-Or63fq2WvLNfduHY4-203" value="" style="edgeStyle=orthogonalEdgeStyle;rounded=0;orthogonalLoop=1;jettySize=auto;html=1;" parent="of-Or63fq2WvLNfduHY4-34" source="of-Or63fq2WvLNfduHY4-184" target="of-Or63fq2WvLNfduHY4-204" edge="1">
          <mxGeometry relative="1" as="geometry">
            <mxPoint x="1047" y="1590" as="targetPoint" />
          </mxGeometry>
        </mxCell>
        <mxCell id="of-Or63fq2WvLNfduHY4-184" value="" style="ellipse;whiteSpace=wrap;html=1;aspect=fixed;" parent="of-Or63fq2WvLNfduHY4-34" vertex="1">
          <mxGeometry x="1030" y="1380" width="35" height="35" as="geometry" />
        </mxCell>
        <mxCell id="of-Or63fq2WvLNfduHY4-196" value="" style="edgeStyle=orthogonalEdgeStyle;rounded=0;orthogonalLoop=1;jettySize=auto;html=1;" parent="of-Or63fq2WvLNfduHY4-34" source="of-Or63fq2WvLNfduHY4-193" target="of-Or63fq2WvLNfduHY4-122" edge="1">
          <mxGeometry relative="1" as="geometry" />
        </mxCell>
        <mxCell id="of-Or63fq2WvLNfduHY4-193" value="" style="ellipse;whiteSpace=wrap;html=1;aspect=fixed;" parent="of-Or63fq2WvLNfduHY4-34" vertex="1">
          <mxGeometry x="720" y="1135.01" width="30" height="30" as="geometry" />
        </mxCell>
        <mxCell id="of-Or63fq2WvLNfduHY4-185" value="" style="edgeStyle=orthogonalEdgeStyle;rounded=0;orthogonalLoop=1;jettySize=auto;html=1;entryX=0.5;entryY=1;entryDx=0;entryDy=0;" parent="of-Or63fq2WvLNfduHY4-34" source="of-Or63fq2WvLNfduHY4-167" target="of-Or63fq2WvLNfduHY4-193" edge="1">
          <mxGeometry relative="1" as="geometry">
            <mxPoint x="730" y="1200" as="targetPoint" />
            <Array as="points">
              <mxPoint x="735" y="1200" />
            </Array>
          </mxGeometry>
        </mxCell>
        <mxCell id="of-Or63fq2WvLNfduHY4-189" value="ใช่" style="edgeLabel;html=1;align=center;verticalAlign=middle;resizable=0;points=[];" parent="of-Or63fq2WvLNfduHY4-185" vertex="1" connectable="0">
          <mxGeometry x="-0.0932" y="-2" relative="1" as="geometry">
            <mxPoint x="16" y="2" as="offset" />
          </mxGeometry>
        </mxCell>
        <mxCell id="of-Or63fq2WvLNfduHY4-200" value="" style="edgeStyle=orthogonalEdgeStyle;rounded=0;orthogonalLoop=1;jettySize=auto;html=1;" parent="of-Or63fq2WvLNfduHY4-34" edge="1">
          <mxGeometry relative="1" as="geometry">
            <mxPoint x="599" y="660" as="sourcePoint" />
            <mxPoint x="1265" y="660" as="targetPoint" />
          </mxGeometry>
        </mxCell>
        <mxCell id="6MrMNqgfL7m1ftgdO51--2" value="" style="edgeStyle=orthogonalEdgeStyle;rounded=0;orthogonalLoop=1;jettySize=auto;html=1;" edge="1" parent="of-Or63fq2WvLNfduHY4-34" source="of-Or63fq2WvLNfduHY4-204" target="6MrMNqgfL7m1ftgdO51--1">
          <mxGeometry relative="1" as="geometry" />
        </mxCell>
        <mxCell id="6MrMNqgfL7m1ftgdO51--5" value="ใช่" style="edgeLabel;html=1;align=center;verticalAlign=middle;resizable=0;points=[];" vertex="1" connectable="0" parent="6MrMNqgfL7m1ftgdO51--2">
          <mxGeometry x="-0.195" relative="1" as="geometry">
            <mxPoint as="offset" />
          </mxGeometry>
        </mxCell>
        <mxCell id="6MrMNqgfL7m1ftgdO51--7" value="" style="edgeStyle=orthogonalEdgeStyle;rounded=0;orthogonalLoop=1;jettySize=auto;html=1;" edge="1" parent="of-Or63fq2WvLNfduHY4-34" source="of-Or63fq2WvLNfduHY4-204">
          <mxGeometry relative="1" as="geometry">
            <mxPoint x="1047.4705882352937" y="1640" as="targetPoint" />
          </mxGeometry>
        </mxCell>
        <mxCell id="6MrMNqgfL7m1ftgdO51--8" value="ไม่" style="edgeLabel;html=1;align=center;verticalAlign=middle;resizable=0;points=[];" vertex="1" connectable="0" parent="6MrMNqgfL7m1ftgdO51--7">
          <mxGeometry x="-0.4785" y="-3" relative="1" as="geometry">
            <mxPoint as="offset" />
          </mxGeometry>
        </mxCell>
        <mxCell id="of-Or63fq2WvLNfduHY4-204" value="&lt;font style=&quot;font-size: 9px;&quot;&gt;ต้องการเลือก&lt;/font&gt;&lt;div&gt;&lt;font style=&quot;font-size: 9px;&quot;&gt;สินค้าเพิ่มหรือไม่&lt;/font&gt;&lt;/div&gt;" style="rhombus;whiteSpace=wrap;html=1;" parent="of-Or63fq2WvLNfduHY4-34" vertex="1">
          <mxGeometry x="1000.5" y="1480" width="93" height="90" as="geometry" />
        </mxCell>
        <mxCell id="6MrMNqgfL7m1ftgdO51--1" value="" style="ellipse;whiteSpace=wrap;html=1;" vertex="1" parent="of-Or63fq2WvLNfduHY4-34">
          <mxGeometry x="1295" y="1507.5" width="35" height="35" as="geometry" />
        </mxCell>
      </root>
    </mxGraphModel>
  </diagram>
</mxfile>
